<?xml version="1.0" encoding="UTF-8"?>
<svg id="Layer_2" xmlns="http://www.w3.org/2000/svg" viewBox="0 0 96.21 96.21">
  <defs>
    <style>
      .cls-1, .cls-2 {
        fill: #0070f2;
      }

      .cls-2 {
        opacity: 0;
      }
    </style>
  </defs>
  <g id="Icons_16px">
    <g id="action-settings">
      <rect class="cls-2" x="0" y="0" width="96.21" height="96.21"/>
      <path class="cls-1" d="M51.43,96.21h-6.66c-4.59,0-8.59-3.24-9.51-7.71l-1.25-6.09-8.3-4.89-5.93,2.27c-4.7,1.85-9.97-.14-12.24-4.62l-3.5-6.87c-2.13-4.19-.92-9.26,2.88-12.06l4.56-3.36v-9.6s-4.56-3.34-4.56-3.34c-3.79-2.79-5.01-7.86-2.88-12.05l3.48-6.84c2.26-4.46,7.68-6.46,12.34-4.57l5.72,2.32,8.41-5.01,1.26-6.11c.91-4.47,4.91-7.71,9.51-7.71h6.66c4.6,0,8.6,3.24,9.51,7.71l1.24,6.11,8.3,4.99,5.85-2.32c4.66-1.9,10.08.11,12.34,4.57l3.48,6.83c2.13,4.18.92,9.25-2.87,12.05l-4.56,3.36v9.6s4.56,3.34,4.56,3.34c3.79,2.8,5,7.87,2.87,12.05l-3.5,6.88c-2.27,4.47-7.53,6.46-12.24,4.61l-5.8-2.28-8.43,4.9-1.24,6.08c-.92,4.48-4.92,7.72-9.51,7.72ZM25.63,67.88c1.73,0,3.46.46,4.98,1.35l8.29,4.89c2.35,1.39,4.01,3.71,4.55,6.36l1.25,6.09,6.74.02,1.32-6.1c.55-2.67,2.21-4.98,4.55-6.37l8.3-4.9c2.6-1.53,5.71-1.78,8.53-.68l5.8,2.28,3.65-6.9-4.56-3.31c-2.45-1.8-3.91-4.69-3.91-7.72v-9.62c0-3.03,1.46-5.91,3.91-7.72l4.55-3.36-3.47-6.78-5.87,2.31c-2.84,1.15-6.1.9-8.72-.68l-8.29-5c-2.3-1.39-3.93-3.69-4.47-6.31l-1.24-6.11h-6.75s-.08,0-.08,0l-1.25,6.11c-.54,2.62-2.17,4.92-4.46,6.3l-8.28,5c-2.62,1.58-5.88,1.84-8.73.68l-5.72-2.32-3.63,6.85,4.57,3.31c2.45,1.8,3.91,4.69,3.91,7.72v9.62c0,3.03-1.46,5.91-3.91,7.72l-4.56,3.36,3.49,6.82,5.94-2.26c1.14-.45,2.35-.67,3.56-.67ZM39.97,8.67h.06-.06ZM48.1,66.14c-9.95,0-18.04-8.09-18.04-18.04s8.09-18.04,18.04-18.04,18.04,8.09,18.04,18.04-8.09,18.04-18.04,18.04ZM48.1,39.69c-4.64,0-8.42,3.78-8.42,8.42s3.78,8.42,8.42,8.42,8.42-3.78,8.42-8.42-3.78-8.42-8.42-8.42Z"/>
    </g>
  </g>
</svg>