<?xml version="1.0" encoding="UTF-8"?>
<svg id="Layer_2" xmlns="http://www.w3.org/2000/svg" viewBox="0 0 96.21 96.21">
  <defs>
    <style>
      .cls-1, .cls-2, .cls-3 {
        fill: #0070f2;
      }

      .cls-2 {
        fill-rule: evenodd;
      }

      .cls-3 {
        opacity: 0;
      }
    </style>
  </defs>
  <g id="Icons_16px">
    <g id="manager-insight">
      <rect class="cls-3" y="0" width="96.21" height="96.21"/>
      <path class="cls-1" d="M4.81,96.21c-2.66,0-4.81-2.15-4.81-4.81V27.66c0-1.18.44-2.33,1.23-3.21L21.67,1.6c1.77-1.98,4.81-2.15,6.79-.38,1.98,1.77,2.15,4.81.38,6.79L9.62,29.5v61.9c0,2.66-2.15,4.81-4.81,4.81Z"/>
      <path class="cls-2" d="M57.73,64.94v8.42c0,2.65-2.16,4.81-4.81,4.81s-4.81-2.16-4.81-4.81v-8.42c0-2.65,2.16-4.81,4.81-4.81s4.81,2.16,4.81,4.81ZM37.28,66.14c-2.66,0-4.81,2.16-4.81,4.81v2.41c0,2.65,2.16,4.81,4.81,4.81s4.81-2.16,4.81-4.81v-2.41c0-2.65-2.16-4.81-4.81-4.81ZM45.71,40.1l-9.62,10.83c-1.76,1.98-1.59,5.02.4,6.79.92.82,2.06,1.22,3.19,1.22,1.33,0,2.65-.54,3.6-1.61l8.19-9.21h7.46c1.87,0,3.57-1.08,4.36-2.78l8.42-18.04c1.12-2.41.08-5.27-2.33-6.39-2.41-1.12-5.27-.08-6.39,2.33l-7.12,15.26h-6.56c-1.37,0-2.68.59-3.6,1.61ZM90.2,4.81v86.59c0,2.65-2.16,4.81-4.81,4.81H22.85c-2.65,0-4.81-2.16-4.81-4.81v-55.32c0-1.15.41-2.25,1.16-3.13L45.95,1.68C46.87.61,48.2,0,49.61,0h35.78c2.65,0,4.81,2.16,4.81,4.81ZM80.58,9.62h-28.75l-3.81,4.45v12.46c0,5.27-4.25,9.55-9.51,9.55h-9.32l-1.52,1.78v48.73h52.91V9.62ZM67.35,54.12c-2.66,0-4.81,2.16-4.81,4.81v14.43c0,2.65,2.16,4.81,4.81,4.81s4.81-2.16,4.81-4.81v-14.43c0-2.65-2.16-4.81-4.81-4.81Z"/>
    </g>
  </g>
</svg>