<?xml version="1.0" encoding="UTF-8"?>
<svg id="Layer_2" xmlns="http://www.w3.org/2000/svg" viewBox="0 0 96.21 96.21">
  <defs>
    <style>
      .cls-1, .cls-2 {
        fill: #0070f2;
      }

      .cls-2 {
        opacity: 0;
      }
    </style>
  </defs>
  <g id="Icons_16px">
    <g id="bbyd-dashboard">
      <rect class="cls-2" y="0" width="96.21" height="96.21"/>
      <path class="cls-1" d="M61.33,96.21h-20.44c-2.66,0-4.81-2.15-4.81-4.81v-14.43c0-2.66,2.15-4.81,4.81-4.81h20.44c2.66,0,4.81,2.15,4.81,4.81v14.43c0,2.66-2.15,4.81-4.81,4.81ZM45.7,86.59h10.82v-4.81h-10.82v4.81ZM19.24,96.21H4.81c-2.66,0-4.81-2.15-4.81-4.81v-14.43c0-2.66,2.15-4.81,4.81-4.81h14.43c2.66,0,4.81,2.15,4.81,4.81v14.43c0,2.66-2.15,4.81-4.81,4.81ZM9.62,86.59h4.81v-4.81h-4.81v4.81ZM85.39,66.14h-44.5c-5.97,0-10.82-4.86-10.82-10.82V10.82c0-5.97,4.86-10.82,10.82-10.82h44.5c5.97,0,10.82,4.86,10.82,10.82v44.5c0,5.97-4.86,10.82-10.82,10.82ZM40.89,9.62c-.66,0-1.2.54-1.2,1.2v44.5c0,.66.54,1.2,1.2,1.2h44.5c.66,0,1.2-.54,1.2-1.2V10.82c0-.66-.54-1.2-1.2-1.2h-44.5ZM19.24,60.13H4.81c-2.66,0-4.81-2.15-4.81-4.81v-20.44c0-2.66,2.15-4.81,4.81-4.81h14.43c2.66,0,4.81,2.15,4.81,4.81v20.44c0,2.66-2.15,4.81-4.81,4.81ZM9.62,50.51h4.81v-10.82h-4.81v10.82ZM76.97,48.1c-2.66,0-4.81-2.15-4.81-4.81v-8.42c0-2.66,2.15-4.81,4.81-4.81s4.81,2.15,4.81,4.81v8.42c0,2.66-2.15,4.81-4.81,4.81ZM63.14,48.1c-2.66,0-4.81-2.15-4.81-4.81v-20.44c0-2.66,2.15-4.81,4.81-4.81s4.81,2.15,4.81,4.81v20.44c0,2.66-2.15,4.81-4.81,4.81ZM49.31,48.1c-2.66,0-4.81-2.15-4.81-4.81v-14.43c0-2.66,2.15-4.81,4.81-4.81s4.81,2.15,4.81,4.81v14.43c0,2.66-2.15,4.81-4.81,4.81Z"/>
    </g>
  </g>
</svg>